<mxfile host="www.draw.io" modified="2020-02-12T07:31:39.595Z" agent="Mozilla/5.0 (Macintosh; Intel Mac OS X 10_14_6) AppleWebKit/605.1.15 (KHTML, like Gecko) Version/12.1.2 Safari/605.1.15" etag="Z_r8S_XgiXlVhtr_w4rA" version="12.6.7" type="github">
  <diagram id="70CzTNJzPNa80F-RPJiq" name="第 1 页">
    <mxGraphModel dx="1003" dy="727" grid="1" gridSize="10" guides="1" tooltips="1" connect="1" arrows="1" fold="1" page="1" pageScale="1" pageWidth="850" pageHeight="1100" math="0" shadow="0">
      <root>
        <mxCell id="0"/>
        <mxCell id="1" parent="0"/>
        <mxCell id="4IvTUrVCET20nHq62nAl-3" value="采集器" style="rounded=0;whiteSpace=wrap;html=1;fillColor=#dae8fc;strokeColor=#6c8ebf;" vertex="1" parent="1">
          <mxGeometry x="520" y="240" width="120" height="320" as="geometry"/>
        </mxCell>
        <mxCell id="4IvTUrVCET20nHq62nAl-4" value="监视器" style="rounded=0;whiteSpace=wrap;html=1;fillColor=#dae8fc;strokeColor=#6c8ebf;" vertex="1" parent="1">
          <mxGeometry x="170" y="90" width="150" height="60" as="geometry"/>
        </mxCell>
        <mxCell id="4IvTUrVCET20nHq62nAl-5" value="控制器" style="rounded=0;whiteSpace=wrap;html=1;fillColor=#dae8fc;strokeColor=#6c8ebf;" vertex="1" parent="1">
          <mxGeometry x="640" y="40" width="140" height="60" as="geometry"/>
        </mxCell>
        <mxCell id="4IvTUrVCET20nHq62nAl-6" value="数据库" style="shape=cylinder;whiteSpace=wrap;html=1;boundedLbl=1;backgroundOutline=1;fillColor=#fff2cc;strokeColor=#d6b656;" vertex="1" parent="1">
          <mxGeometry x="120" y="370" width="60" height="50" as="geometry"/>
        </mxCell>
        <mxCell id="4IvTUrVCET20nHq62nAl-12" style="edgeStyle=orthogonalEdgeStyle;rounded=0;orthogonalLoop=1;jettySize=auto;html=1;exitX=1;exitY=0.5;exitDx=0;exitDy=0;entryX=0;entryY=0.25;entryDx=0;entryDy=0;startArrow=classicThin;startFill=1;endArrow=classicThin;endFill=1;" edge="1" parent="1" source="4IvTUrVCET20nHq62nAl-25" target="4IvTUrVCET20nHq62nAl-3">
          <mxGeometry relative="1" as="geometry">
            <mxPoint x="440" y="325" as="sourcePoint"/>
          </mxGeometry>
        </mxCell>
        <mxCell id="4IvTUrVCET20nHq62nAl-10" value="硬件接口" style="text;html=1;strokeColor=none;fillColor=none;align=center;verticalAlign=middle;whiteSpace=wrap;rounded=0;" vertex="1" parent="1">
          <mxGeometry x="443.13" y="300" width="60" height="20" as="geometry"/>
        </mxCell>
        <mxCell id="4IvTUrVCET20nHq62nAl-18" style="edgeStyle=orthogonalEdgeStyle;rounded=0;orthogonalLoop=1;jettySize=auto;html=1;exitX=1;exitY=0.5;exitDx=0;exitDy=0;entryX=0;entryY=0.5;entryDx=0;entryDy=0;" edge="1" parent="1" source="4IvTUrVCET20nHq62nAl-16" target="4IvTUrVCET20nHq62nAl-3">
          <mxGeometry relative="1" as="geometry"/>
        </mxCell>
        <mxCell id="4IvTUrVCET20nHq62nAl-16" value="" style="shape=hexagon;perimeter=hexagonPerimeter2;whiteSpace=wrap;html=1;size=0.2857142857142857;fillColor=#dae8fc;strokeColor=#6c8ebf;" vertex="1" parent="1">
          <mxGeometry x="398.75" y="385" width="40" height="30" as="geometry"/>
        </mxCell>
        <mxCell id="4IvTUrVCET20nHq62nAl-17" value="通讯协议" style="text;html=1;strokeColor=none;fillColor=none;align=center;verticalAlign=middle;whiteSpace=wrap;rounded=0;" vertex="1" parent="1">
          <mxGeometry x="445.63" y="380" width="55" height="20" as="geometry"/>
        </mxCell>
        <mxCell id="4IvTUrVCET20nHq62nAl-24" style="edgeStyle=orthogonalEdgeStyle;rounded=0;orthogonalLoop=1;jettySize=auto;html=1;exitX=0;exitY=0;exitDx=40;exitDy=20;exitPerimeter=0;entryX=0;entryY=0.75;entryDx=0;entryDy=0;" edge="1" parent="1" source="4IvTUrVCET20nHq62nAl-19" target="4IvTUrVCET20nHq62nAl-3">
          <mxGeometry relative="1" as="geometry"/>
        </mxCell>
        <mxCell id="4IvTUrVCET20nHq62nAl-19" value="" style="shape=note;whiteSpace=wrap;html=1;backgroundOutline=1;darkOpacity=0.05;size=10;fillColor=#dae8fc;strokeColor=#6c8ebf;" vertex="1" parent="1">
          <mxGeometry x="402.5" y="460" width="40" height="30" as="geometry"/>
        </mxCell>
        <mxCell id="4IvTUrVCET20nHq62nAl-23" value="通讯参数" style="text;html=1;strokeColor=none;fillColor=none;align=center;verticalAlign=middle;whiteSpace=wrap;rounded=0;" vertex="1" parent="1">
          <mxGeometry x="447.51" y="460" width="51.25" height="20" as="geometry"/>
        </mxCell>
        <mxCell id="4IvTUrVCET20nHq62nAl-25" value="" style="rhombus;whiteSpace=wrap;html=1;fillColor=#dae8fc;strokeColor=#6c8ebf;" vertex="1" parent="1">
          <mxGeometry x="398.75" y="300" width="40" height="40" as="geometry"/>
        </mxCell>
      </root>
    </mxGraphModel>
  </diagram>
</mxfile>
